<mxfile host="app.diagrams.net" modified="2021-02-05T10:19:32.384Z" agent="5.0 (Windows NT 10.0; Win64; x64) AppleWebKit/537.36 (KHTML, like Gecko) Chrome/88.0.4324.104 Safari/537.36" etag="RbDrzO9JYDytX8FuMphy" version="14.2.9" type="github">
  <diagram id="lIgAJKMXiZVjgPJ8aUWg" name="Page-1">
    <mxGraphModel dx="2062" dy="1122" grid="1" gridSize="10" guides="1" tooltips="1" connect="1" arrows="1" fold="1" page="1" pageScale="1" pageWidth="900" pageHeight="1600" math="0" shadow="0">
      <root>
        <mxCell id="0" />
        <mxCell id="1" parent="0" />
        <mxCell id="fEwWPPyDHbLscD8lhj89-3" value="" style="edgeStyle=orthogonalEdgeStyle;rounded=0;orthogonalLoop=1;jettySize=auto;html=1;" edge="1" parent="1" source="fEwWPPyDHbLscD8lhj89-1" target="fEwWPPyDHbLscD8lhj89-2">
          <mxGeometry relative="1" as="geometry" />
        </mxCell>
        <mxCell id="fEwWPPyDHbLscD8lhj89-1" value="&lt;span style=&quot;font-size: 22px&quot;&gt;&lt;b&gt;Start&lt;/b&gt;&lt;/span&gt;" style="ellipse;whiteSpace=wrap;html=1;strokeColor=#b85450;fillColor=#FF3333;" vertex="1" parent="1">
          <mxGeometry x="390" y="40" width="120" height="80" as="geometry" />
        </mxCell>
        <mxCell id="fEwWPPyDHbLscD8lhj89-5" value="" style="edgeStyle=orthogonalEdgeStyle;rounded=0;orthogonalLoop=1;jettySize=auto;html=1;" edge="1" parent="1" source="fEwWPPyDHbLscD8lhj89-2" target="fEwWPPyDHbLscD8lhj89-4">
          <mxGeometry relative="1" as="geometry" />
        </mxCell>
        <mxCell id="fEwWPPyDHbLscD8lhj89-2" value="Ask for player&lt;br&gt;name" style="shape=parallelogram;perimeter=parallelogramPerimeter;whiteSpace=wrap;html=1;fixedSize=1;strokeColor=#82b366;fillColor=#d5e8d4;" vertex="1" parent="1">
          <mxGeometry x="390" y="210" width="120" height="60" as="geometry" />
        </mxCell>
        <mxCell id="fEwWPPyDHbLscD8lhj89-7" value="" style="edgeStyle=orthogonalEdgeStyle;rounded=0;orthogonalLoop=1;jettySize=auto;html=1;" edge="1" parent="1" source="fEwWPPyDHbLscD8lhj89-4" target="fEwWPPyDHbLscD8lhj89-6">
          <mxGeometry relative="1" as="geometry" />
        </mxCell>
        <mxCell id="fEwWPPyDHbLscD8lhj89-4" value="Play game" style="whiteSpace=wrap;html=1;strokeColor=#82b366;fillColor=#d5e8d4;" vertex="1" parent="1">
          <mxGeometry x="390" y="350" width="120" height="60" as="geometry" />
        </mxCell>
        <mxCell id="fEwWPPyDHbLscD8lhj89-9" value="" style="edgeStyle=orthogonalEdgeStyle;rounded=0;orthogonalLoop=1;jettySize=auto;html=1;" edge="1" parent="1" source="fEwWPPyDHbLscD8lhj89-6" target="fEwWPPyDHbLscD8lhj89-8">
          <mxGeometry relative="1" as="geometry" />
        </mxCell>
        <mxCell id="fEwWPPyDHbLscD8lhj89-6" value="Print score" style="whiteSpace=wrap;html=1;strokeColor=#82b366;fillColor=#d5e8d4;" vertex="1" parent="1">
          <mxGeometry x="390" y="490" width="120" height="60" as="geometry" />
        </mxCell>
        <mxCell id="fEwWPPyDHbLscD8lhj89-8" value="Play again" style="rhombus;whiteSpace=wrap;html=1;strokeColor=#82b366;fillColor=#d5e8d4;" vertex="1" parent="1">
          <mxGeometry x="410" y="620" width="80" height="80" as="geometry" />
        </mxCell>
        <mxCell id="fEwWPPyDHbLscD8lhj89-10" value="" style="endArrow=classic;html=1;exitX=1;exitY=0.5;exitDx=0;exitDy=0;entryX=1;entryY=0.5;entryDx=0;entryDy=0;" edge="1" parent="1" source="fEwWPPyDHbLscD8lhj89-8" target="fEwWPPyDHbLscD8lhj89-2">
          <mxGeometry relative="1" as="geometry">
            <mxPoint x="590" y="440" as="sourcePoint" />
            <mxPoint x="690" y="440" as="targetPoint" />
            <Array as="points">
              <mxPoint x="580" y="660" />
              <mxPoint x="580" y="240" />
            </Array>
          </mxGeometry>
        </mxCell>
        <mxCell id="fEwWPPyDHbLscD8lhj89-11" value="Yes" style="edgeLabel;resizable=0;html=1;align=center;verticalAlign=middle;" connectable="0" vertex="1" parent="fEwWPPyDHbLscD8lhj89-10">
          <mxGeometry relative="1" as="geometry" />
        </mxCell>
        <mxCell id="fEwWPPyDHbLscD8lhj89-12" value="" style="endArrow=classic;html=1;exitX=0.5;exitY=1;exitDx=0;exitDy=0;" edge="1" parent="1" source="fEwWPPyDHbLscD8lhj89-8" target="fEwWPPyDHbLscD8lhj89-14">
          <mxGeometry relative="1" as="geometry">
            <mxPoint x="550" y="750" as="sourcePoint" />
            <mxPoint x="450" y="780" as="targetPoint" />
          </mxGeometry>
        </mxCell>
        <mxCell id="fEwWPPyDHbLscD8lhj89-13" value="No" style="edgeLabel;resizable=0;html=1;align=center;verticalAlign=middle;" connectable="0" vertex="1" parent="fEwWPPyDHbLscD8lhj89-12">
          <mxGeometry relative="1" as="geometry" />
        </mxCell>
        <mxCell id="fEwWPPyDHbLscD8lhj89-14" value="&lt;font style=&quot;font-size: 22px&quot;&gt;End&lt;/font&gt;" style="ellipse;whiteSpace=wrap;html=1;strokeColor=#b85450;fillColor=#FF3333;" vertex="1" parent="1">
          <mxGeometry x="390" y="770" width="120" height="80" as="geometry" />
        </mxCell>
      </root>
    </mxGraphModel>
  </diagram>
</mxfile>
